<?xml version="1.0" encoding="UTF-8"?>
<svg id="Layer_2" data-name="Layer 2" xmlns="http://www.w3.org/2000/svg" viewBox="0 0 187.45 239.31">
  <defs>
    <style>
      .cls-1 {
        fill: #fff;
      }
    </style>
  </defs>
  <g id="Layer_1-2" data-name="Layer 1">
    <g>
      <path class="cls-1" d="m9.74,170.42c10.04,17.59,27.77,29.99,46.29,37.34,26.53,10.52,58.97,9.97,82.23-7.52,17.66-13.82,24.45-39.23,20.01-60.89-3.33-12.64-12.37-23.79-22.89-31.96-14.41-11.05-33.13-16.89-51.25-14.59-13.69,2.05-27.17,8.2-30.5,21.64-2.07,7.5,2.61,15.5,9.25,19.55,14.47,8.61,35.23,3.36,51.24-2.95,6.73-2.73,14.41.54,17.09,7.29,2.56,6.45-.4,13.73-6.58,16.66-10.82,5.1-22.54,9.28-35.5,10.94-13.68,1.77-28.4.2-40.94-7.09-26.09-15.07-32.45-47.65-13.78-71.62,11.18-14.14,28.56-21.6,45.78-23.91,38.93-4.7,79.12,16.28,98.1,50.63,12.98,23.11,11.23,52.57.57,76.46-16.03,36.81-58.62,53.76-96.85,47.7C47.46,232.93,10.44,208.79.19,174.18c-1.52-5.99,6.65-9.12,9.55-3.77h0Z"/>
      <path class="cls-1" d="m110.75,0c-11.4,0-21.28,10.59-21.28,21.52s9.28,19.83,20.67,19.83,20.67-8.9,20.67-19.83S122.15,0,110.75,0Z"/>
    </g>
  </g>
</svg>